<?xml version="1.0" standalone="no"?>
<!DOCTYPE svg PUBLIC "-//W3C//DTD SVG 20010904//EN"
 "http://www.w3.org/TR/2001/REC-SVG-20010904/DTD/svg10.dtd">
<svg version="1.0" xmlns="http://www.w3.org/2000/svg"
 width="500.000000pt" height="500.000000pt" viewBox="0 0 500.000000 500.000000"
 preserveAspectRatio="xMidYMid meet">
<metadata>
Created by potrace 1.14, written by Peter Selinger 2001-2017
</metadata>
<g transform="translate(0.000000,500.000000) scale(0.100000,-0.100000)"
fill="#000000" stroke="none">
<path d="M1174 4169 c-4 -8 -3 -9 4 -5 8 5 10 2 6 -8 -3 -9 -10 -13 -15 -10
-6 3 -17 0 -26 -8 -10 -7 -14 -8 -10 -1 5 7 1 9 -12 6 -12 -3 -17 -11 -14 -19
3 -9 -2 -14 -16 -14 -15 0 -19 -4 -14 -17 4 -11 3 -14 -5 -9 -7 4 -12 2 -12
-4 0 -6 -4 -8 -10 -5 -6 4 -7 -1 -3 -12 6 -16 5 -17 -12 -3 -10 8 -16 10 -12
3 11 -17 -3 -43 -19 -36 -9 3 -14 -2 -14 -17 0 -16 -4 -20 -16 -16 -8 3 -12 2
-9 -4 3 -6 1 -10 -5 -10 -7 0 -10 -7 -6 -15 3 -8 1 -15 -5 -15 -6 0 -5 -8 2
-21 8 -15 8 -19 0 -15 -6 4 -17 1 -24 -6 -16 -16 -30 -51 -18 -43 5 3 12 1 15
-4 3 -5 -1 -12 -10 -15 -15 -6 -15 -8 0 -25 15 -16 15 -22 4 -40 -11 -17 -11
-25 0 -42 8 -12 9 -19 4 -15 -5 3 -9 -9 -10 -26 -1 -24 2 -28 8 -18 6 9 10 10
10 3 0 -6 -4 -14 -9 -17 -5 -3 -8 -17 -8 -31 0 -13 3 -22 7 -20 5 3 15 -2 24
-11 12 -12 13 -20 6 -35 -8 -15 -7 -19 5 -19 8 0 15 -5 15 -11 0 -5 5 -7 12
-3 8 5 9 2 5 -9 -4 -10 -1 -17 6 -17 8 0 8 -3 -2 -9 -9 -6 -10 -11 -2 -15 6
-4 8 -13 5 -19 -4 -7 -4 -9 0 -5 10 8 36 -14 29 -24 -2 -5 6 -8 18 -8 12 0 20
-3 16 -6 -3 -4 1 -13 9 -21 8 -8 12 -18 9 -23 -7 -11 22 -7 32 5 4 4 2 5 -6 0
-10 -6 -12 -4 -7 4 6 8 12 9 20 2 7 -6 17 -7 21 -3 5 4 5 1 1 -5 -4 -7 -2 -13
3 -13 6 0 11 -7 11 -15 0 -8 5 -15 11 -15 5 0 8 4 5 8 -6 10 30 9 40 0 3 -3
19 -2 35 2 21 6 27 5 23 -2 -5 -8 -1 -9 10 -5 14 5 17 3 12 -8 -3 -8 0 -14 6
-12 7 1 12 -3 13 -10 0 -6 4 -15 9 -20 5 -4 6 -3 3 3 -4 8 5 13 24 16 20 3 33
0 38 -10 7 -13 10 -11 15 6 4 12 12 22 17 22 6 0 7 5 4 10 -9 14 28 12 44 -2
11 -11 13 -10 8 4 -5 14 -1 15 24 8 18 -6 31 -5 35 2 4 7 2 8 -4 4 -14 -9 -15
4 -2 24 8 13 10 13 10 1 0 -11 4 -10 16 5 8 10 13 13 9 7 -8 -17 20 -17 34 0
6 8 7 18 3 22 -4 5 -2 6 3 2 6 -3 19 2 30 10 16 13 17 15 3 10 -28 -10 -21 -1
17 23 19 12 33 25 30 30 -3 4 2 11 11 14 10 4 13 2 8 -6 -5 -7 -3 -8 5 -3 7 4
11 16 8 26 -3 11 0 19 6 19 7 0 5 5 -3 10 -13 9 -13 10 0 10 23 0 41 36 35 71
-4 23 -2 29 7 23 10 -6 11 -5 1 7 -9 11 -9 19 -2 26 8 8 7 13 -2 18 -8 6 -10
4 -4 -5 5 -9 4 -11 -4 -6 -8 5 -9 12 -2 20 6 7 9 34 7 59 -3 34 -1 45 7 40 9
-5 8 -2 0 8 -9 11 -9 19 -2 26 8 8 7 13 -2 18 -8 6 -10 4 -4 -5 6 -9 4 -11 -4
-6 -9 6 -8 13 6 29 10 11 13 17 7 14 -15 -9 -27 20 -12 29 7 5 8 2 3 -6 -5 -9
-4 -11 3 -6 9 5 9 13 2 27 -6 10 -13 19 -16 19 -3 0 -2 -5 2 -11 5 -8 1 -8
-14 0 -12 6 -24 17 -28 24 -6 9 -5 9 7 0 16 -13 16 -12 10 39 -1 4 -10 10 -21
13 -11 4 -18 11 -15 16 4 5 1 9 -5 9 -6 0 -8 5 -5 10 4 6 3 10 -2 9 -20 -3
-34 2 -28 11 3 6 1 10 -5 10 -6 0 -9 4 -6 9 8 12 -37 8 -46 -4 -4 -5 -8 1 -8
15 0 20 -2 22 -10 10 -8 -12 -10 -11 -10 8 0 12 -5 22 -11 22 -5 0 -8 -4 -5
-9 5 -8 -15 -8 -34 -1 -3 1 -8 2 -11 2 -4 -1 -6 6 -5 16 1 15 -15 17 -151 20
-108 2 -154 -1 -159 -9z"/>
<path d="M2125 4170 c-3 -5 -3 -15 1 -22 5 -8 2 -9 -9 -5 -10 4 -17 1 -17 -6
0 -8 -4 -6 -10 3 -9 13 -10 13 -10 0 0 -9 -3 -11 -8 -5 -4 6 -13 11 -21 13
-12 3 -12 0 -2 -12 9 -11 9 -16 0 -22 -8 -5 -10 -3 -4 7 4 8 -2 4 -14 -8 -21
-22 -37 -31 -27 -15 2 4 -5 8 -17 9 -12 0 -16 -1 -9 -4 9 -3 5 -12 -13 -29
-15 -13 -31 -21 -37 -18 -7 4 -7 0 0 -13 6 -11 7 -25 2 -33 -5 -8 -6 -18 -3
-24 4 -5 -1 -7 -10 -3 -10 3 -17 2 -17 -4 0 -6 -4 -7 -10 -4 -6 4 -7 -1 -3
-11 5 -14 3 -16 -11 -11 -10 4 -15 3 -11 -3 3 -6 1 -10 -5 -10 -7 0 -8 -6 0
-19 7 -13 7 -22 0 -26 -5 -3 -10 -11 -10 -16 0 -6 5 -7 12 -3 7 4 8 3 4 -5 -4
-6 -9 -23 -12 -37 -3 -19 -1 -24 8 -18 10 5 11 4 1 -7 -16 -16 -17 -33 -2 -23
8 5 8 1 0 -14 -6 -11 -11 -23 -11 -27 0 -3 5 -3 11 1 8 5 8 1 0 -14 -6 -11
-11 -23 -11 -27 0 -3 5 -3 11 1 8 5 8 1 0 -14 -14 -26 -14 -35 -1 -27 7 4 7
-3 0 -20 -13 -33 -13 -38 1 -29 8 5 8 1 0 -14 -11 -21 0 -39 17 -28 4 2 13 -4
20 -14 9 -14 9 -21 0 -26 -7 -5 -8 -2 -3 7 5 8 4 10 0 6 -12 -10 -15 -38 -4
-31 5 3 9 -3 9 -13 0 -13 2 -15 9 -5 6 10 11 9 22 -4 12 -16 12 -17 -1 -9 -13
8 -13 7 -1 -8 8 -10 16 -15 19 -13 5 6 32 -19 32 -29 0 -3 -5 -3 -12 1 -7 4
-8 3 -4 -5 4 -6 12 -9 17 -6 5 4 9 1 9 -5 0 -6 5 -8 10 -5 6 3 10 -1 10 -9 0
-14 27 -29 46 -25 20 3 34 -2 34 -12 0 -5 -5 -7 -12 -3 -6 4 -8 3 -5 -3 4 -6
16 -13 27 -16 13 -3 18 -1 13 5 -4 7 -1 8 7 3 7 -4 35 -8 61 -8 32 1 53 -4 61
-15 9 -10 9 -13 1 -9 -6 4 -15 2 -19 -5 -4 -7 -4 -10 1 -6 4 4 16 3 26 -3 14
-7 19 -6 19 2 0 8 5 7 17 -2 9 -8 14 -9 10 -3 -3 6 0 11 8 11 8 0 12 -3 10 -7
-2 -3 5 -6 15 -6 11 0 16 5 12 15 -3 9 -1 12 6 7 8 -5 10 -2 5 9 -5 15 1 16
45 11 39 -4 51 -2 56 10 3 8 11 12 17 8 7 -4 7 1 -1 16 -10 18 -10 21 2 14 23
-15 44 -14 64 2 10 9 12 12 4 8 -13 -7 -13 -5 -1 9 7 9 17 14 22 11 8 -5 13 9
11 28 -1 3 5 9 14 12 10 4 13 2 8 -6 -4 -7 -3 -8 4 -4 7 4 12 16 12 27 0 12 7
19 19 19 21 0 36 26 20 36 -6 3 -3 11 7 18 11 9 14 18 9 27 -8 12 -6 12 9 0
15 -13 17 -12 12 12 -3 15 -2 27 2 27 4 0 7 11 7 24 0 13 -2 23 -5 21 -3 -2
-5 24 -5 56 -1 32 2 59 5 59 3 0 5 11 5 24 0 13 -2 23 -5 21 -3 -2 -5 18 -4
45 2 39 0 48 -12 43 -8 -3 -14 0 -14 7 0 6 -4 9 -8 6 -10 -6 -9 24 0 40 4 5 2
16 -4 24 -8 12 -9 11 -4 -5 6 -19 5 -19 -7 -3 -8 10 -17 15 -20 11 -4 -3 -7 3
-7 15 0 15 -6 22 -20 22 -18 0 -19 3 -9 23 11 20 11 21 -4 8 -14 -11 -18 -11
-23 3 -3 9 -11 13 -17 9 -5 -3 -7 -1 -3 5 3 6 -8 22 -26 37 -18 15 -28 24 -21
21 6 -4 14 -2 18 3 6 10 -27 7 -45 -4 -6 -3 -10 -1 -10 6 0 8 -5 7 -17 -2 -15
-13 -15 -12 -4 10 8 15 9 21 2 17 -6 -4 -11 -2 -11 3 0 14 -286 15 -295 1z"/>
<path d="M3521 4171 c-9 -6 -11 -16 -7 -27 6 -15 5 -16 -5 -7 -10 10 -16 10
-28 0 -12 -10 -13 -9 -6 3 7 12 6 13 -7 3 -8 -7 -18 -10 -21 -7 -3 4 -9 -6
-13 -21 -4 -18 -9 -23 -14 -15 -5 9 -10 6 -15 -9 -4 -13 -12 -20 -20 -17 -9 3
-12 -3 -11 -19 2 -16 -1 -22 -10 -18 -8 3 -14 0 -14 -6 0 -6 -12 -17 -27 -25
-16 -8 -24 -15 -19 -16 6 0 1 -7 -10 -16 -10 -8 -13 -13 -6 -9 6 3 12 1 12 -4
0 -6 -6 -11 -12 -11 -9 0 -8 -4 2 -10 13 -8 13 -10 0 -10 -11 0 -11 -3 -2 -12
17 -17 15 -28 -4 -28 -9 0 -12 -5 -8 -12 5 -8 2 -9 -12 -4 -10 4 -16 4 -12 1
3 -4 2 -20 -2 -36 -6 -21 -5 -27 2 -23 8 5 9 1 5 -11 -4 -9 -2 -24 4 -31 10
-12 9 -13 -5 -8 -14 5 -15 3 -7 -19 5 -14 7 -28 4 -31 -3 -3 0 -12 7 -21 11
-13 10 -14 -4 -9 -14 5 -15 3 -6 -22 6 -15 8 -34 5 -43 -3 -8 -3 -13 0 -9 12
12 43 -24 38 -43 -3 -12 0 -19 8 -19 11 0 11 -3 -1 -11 -12 -9 -10 -10 8 -6
14 3 21 1 20 -6 -2 -7 0 -12 3 -12 11 0 40 -35 38 -47 -1 -7 -1 -21 0 -32 1
-15 4 -16 16 -6 13 11 14 10 9 -3 -4 -12 -1 -14 14 -10 14 3 32 -7 59 -32 21
-21 33 -35 26 -31 -6 3 -14 2 -17 -3 -7 -10 46 -7 64 4 8 5 11 4 7 -2 -4 -5 6
-10 23 -10 16 0 27 3 25 7 -2 3 5 6 15 6 10 0 16 -6 13 -13 -3 -7 0 -13 7 -13
7 0 10 -6 7 -13 -3 -8 1 -14 9 -14 8 0 14 4 14 9 0 5 8 4 18 -1 13 -7 23 -6
32 2 10 9 11 9 6 0 -4 -7 -3 -13 2 -13 6 0 13 7 16 16 3 9 11 12 18 8 10 -6
10 -4 0 8 -12 15 -10 16 18 13 22 -3 29 -1 23 8 -4 7 5 4 20 -6 22 -14 25 -14
21 -2 -5 12 -2 13 17 6 18 -6 27 -4 37 8 8 9 10 10 6 2 -4 -9 -3 -12 4 -7 6 4
9 13 6 21 -4 8 1 18 10 21 9 3 13 10 10 15 -3 5 2 6 10 3 9 -4 18 1 22 10 3 9
9 14 13 13 3 -2 14 4 24 15 17 17 11 26 -8 11 -6 -5 -1 2 10 13 11 12 23 19
28 17 4 -2 7 0 7 5 0 5 9 19 19 31 14 16 21 18 24 9 3 -8 6 -6 6 5 1 11 6 16
14 12 6 -4 3 1 -7 9 -11 9 -15 16 -10 16 6 0 11 7 11 15 0 8 -4 15 -9 15 -5 0
-6 5 -3 10 4 6 12 7 18 3 7 -4 5 2 -3 12 -9 11 -10 16 -2 11 7 -4 15 -1 18 8
3 9 10 14 14 11 11 -7 7 29 -5 37 -6 5 -5 8 3 8 6 0 12 5 12 11 0 5 -6 7 -12
3 -9 -5 -9 -2 1 9 11 14 11 17 0 17 -10 0 -10 3 -1 12 16 16 15 31 0 22 -10
-6 -10 -4 0 8 10 12 10 18 1 23 -8 6 -7 10 2 17 11 7 11 11 2 15 -7 2 -13 11
-13 18 0 8 -5 17 -12 21 -7 5 -8 3 -3 -6 5 -8 4 -11 -3 -6 -6 4 -9 13 -5 21 3
9 -1 15 -8 15 -9 0 -10 3 -4 8 12 9 18 32 8 31 -25 -4 -33 4 -31 30 2 34 -21
65 -67 89 -17 8 -24 17 -17 19 22 8 13 20 -13 18 -19 -3 -25 1 -25 16 0 11 -4
17 -10 14 -5 -3 -10 0 -10 7 0 10 -2 10 -9 -1 -7 -11 -9 -11 -13 0 -3 8 -9 9
-18 4 -28 -18 -48 -13 -45 11 2 22 1 22 -144 23 -80 1 -152 -3 -160 -8z m499
-136 c7 -9 8 -15 2 -15 -5 0 -12 7 -16 15 -3 8 -4 15 -2 15 2 0 9 -7 16 -15z"/>
<path d="M2291 3278 c-1 -20 -16 -24 -26 -8 -3 6 -11 10 -16 10 -6 0 -7 -4 -4
-10 3 -5 1 -10 -4 -10 -6 0 -11 -7 -11 -16 0 -14 -2 -15 -17 -3 -9 8 -14 9
-10 3 4 -7 -7 -11 -33 -11 -26 0 -37 4 -33 11 4 6 -1 5 -11 -3 -15 -13 -19
-13 -27 0 -6 10 -9 10 -9 1 0 -8 -9 -11 -25 -8 -14 3 -23 1 -20 -5 3 -5 1 -17
-4 -26 -8 -14 -10 -15 -11 -3 0 13 -1 13 -10 0 -5 -8 -10 -11 -10 -6 0 5 -7 3
-15 -4 -13 -11 -14 -10 -9 6 6 18 6 18 -9 -1 -8 -11 -13 -24 -10 -29 4 -5 1
-6 -5 -2 -5 3 -13 0 -15 -6 -4 -9 -6 -8 -6 2 -1 13 -3 13 -10 1 -8 -13 -12
-13 -27 0 -10 8 -15 9 -11 3 3 -6 -5 -22 -18 -36 -13 -14 -21 -29 -17 -33 4
-5 -3 -5 -16 -2 -19 4 -21 3 -12 -8 9 -10 6 -15 -10 -20 -11 -3 -18 -10 -15
-15 3 -4 -4 -6 -15 -3 -14 4 -17 9 -11 17 7 8 4 16 -11 25 -15 9 -18 9 -13 0
5 -8 4 -10 -4 -5 -6 4 -10 15 -9 24 2 9 -4 17 -12 17 -8 1 -14 6 -12 13 1 7
-4 11 -10 10 -7 -2 -12 2 -11 9 2 11 -21 12 -33 1 -11 -11 -42 24 -36 41 5 13
3 14 -9 4 -12 -10 -18 -10 -29 0 -10 10 -11 9 -5 -2 5 -9 3 -12 -6 -9 -8 3
-18 13 -24 24 -7 13 -20 19 -40 18 -16 -1 -33 4 -37 10 -6 8 -8 8 -8 0 0 -6
-11 -11 -25 -11 -16 0 -22 4 -18 11 4 6 -1 5 -11 -3 -14 -12 -19 -12 -26 -2
-6 11 -9 11 -13 0 -3 -8 -6 -4 -6 9 -1 13 -5 20 -11 17 -5 -3 -10 -3 -10 2 0
4 -16 9 -36 9 -20 1 -32 -1 -27 -5 14 -10 10 -34 -7 -38 -13 -4 -13 -3 0 6 21
15 4 14 -20 -1 -17 -11 -22 -10 -29 1 -7 11 -9 11 -13 0 -5 -12 -9 -12 -28 -1
-12 8 -19 9 -16 4 3 -6 -9 -10 -30 -10 -20 0 -41 -6 -47 -12 -9 -10 -9 -11 0
-6 8 4 11 2 8 -6 -3 -7 -16 -14 -30 -14 -14 -1 -23 1 -20 5 2 4 -2 8 -9 8 -8
0 -12 -7 -8 -15 4 -11 1 -13 -8 -7 -10 6 -12 4 -7 -9 4 -10 3 -15 -3 -11 -6 3
-10 1 -10 -6 0 -8 -3 -9 -13 0 -8 6 -17 7 -21 3 -4 -4 -13 -7 -19 -7 -7 0 -11
-8 -9 -17 1 -9 -2 -19 -8 -23 -5 -3 -10 -1 -10 6 0 7 -3 9 -8 5 -7 -7 -8 -11
-11 -37 0 -5 -6 -7 -11 -4 -6 3 -10 1 -10 -5 0 -6 -4 -8 -10 -5 -6 4 -7 -1 -3
-11 4 -12 3 -15 -5 -10 -7 4 -12 2 -12 -4 0 -6 -5 -8 -12 -4 -8 5 -9 2 -5 -9
3 -10 2 -17 -4 -17 -6 0 -7 -5 -3 -11 4 -7 -2 -7 -17 1 -13 7 -21 9 -17 5 4
-5 2 -15 -5 -23 -9 -13 -9 -14 1 -8 9 5 11 1 8 -16 -3 -13 -5 -25 -6 -28 -2
-3 -2 -8 -2 -11 1 -4 -6 -6 -16 -5 -9 0 -17 -3 -17 -9 0 -5 -4 -16 -9 -24 -6
-9 -5 -12 2 -7 6 3 9 -1 7 -11 -2 -10 -4 -20 -4 -23 -1 -3 -6 2 -11 10 -6 10
-10 11 -10 3 0 -7 -8 -13 -17 -13 -14 0 -15 -2 -4 -9 7 -5 11 -13 7 -19 -3 -6
-1 -14 4 -17 7 -5 5 -12 -7 -22 -10 -8 -13 -12 -7 -9 7 3 15 -1 18 -10 4 -9 2
-13 -5 -8 -7 4 -9 0 -5 -14 5 -15 1 -24 -14 -32 -20 -11 -20 -18 -20 -425 0
-404 1 -415 19 -415 11 0 23 -5 26 -10 3 -6 -2 -10 -12 -10 -14 0 -15 -2 -4
-9 7 -5 10 -14 7 -20 -4 -6 -2 -11 4 -11 12 0 40 -24 40 -35 0 -3 -6 -3 -12 1
-8 4 -10 3 -5 -2 5 -5 12 -9 15 -9 4 0 13 -4 21 -9 11 -7 12 -6 6 5 -8 12 -6
12 8 0 11 -9 17 -10 17 -2 0 13 22 10 32 -4 5 -7 8 -6 8 0 0 6 9 11 20 12 13
1 18 -2 13 -10 -4 -7 0 -6 10 2 14 11 17 11 17 0 0 -11 2 -11 10 1 9 13 11 13
20 0 8 -13 14 -10 33 14 13 16 28 26 34 23 6 -4 10 3 9 16 -1 12 3 25 9 29 6
5 5 8 -3 8 -9 0 -10 6 -5 18 13 26 10 52 -7 62 -13 8 -12 10 3 10 14 0 16 4 7
19 -7 14 -6 21 3 24 9 4 9 6 0 6 -7 1 -13 6 -13 12 0 5 6 7 13 3 8 -5 8 -2 -2
9 -8 11 -9 17 -2 17 7 0 8 8 1 25 -7 18 -6 25 3 25 7 0 8 3 2 8 -5 4 -10 21
-10 37 0 17 5 33 10 37 6 5 5 8 -3 8 -9 0 -10 6 -5 18 13 26 10 52 -7 62 -13
8 -12 10 3 10 14 0 16 4 7 19 -7 14 -6 21 3 24 9 4 9 6 0 6 -7 1 -13 6 -13 12
0 5 6 7 13 3 8 -5 8 -2 -2 9 -8 11 -9 17 -2 17 7 0 8 8 1 25 -7 18 -6 25 3 25
7 0 8 3 2 8 -13 9 -15 42 -3 42 6 0 6 6 -1 14 -9 11 -9 15 1 19 10 4 10 6 1 6
-7 1 -13 6 -13 12 0 5 5 7 11 3 8 -5 8 -1 0 14 -8 15 -8 22 2 25 9 4 9 6 0 6
-7 1 -13 6 -13 12 0 5 6 7 13 3 8 -5 8 -2 -2 9 -8 11 -9 17 -2 17 7 0 8 8 1
25 -7 18 -6 25 3 25 9 0 9 2 0 8 -8 5 -9 13 -3 22 5 9 5 19 -1 26 -7 9 -4 12
15 10 21 -3 24 0 20 21 -4 18 -1 23 8 17 11 -6 11 -5 0 8 -10 13 -10 17 3 22
10 3 13 11 9 18 -5 8 0 7 11 -2 11 -9 16 -10 11 -2 -4 7 -2 12 5 12 8 0 8 4
-1 16 -11 12 -11 15 1 12 8 -2 18 -7 22 -13 5 -6 7 2 4 18 -3 22 -2 25 9 16
11 -9 14 -8 14 0 0 7 5 9 13 5 7 -5 6 0 -3 11 -9 11 -10 16 -2 11 7 -4 15 -1
18 8 3 9 10 16 16 16 5 0 6 -5 2 -11 -4 -7 7 -1 24 11 17 13 29 27 25 33 -3 5
5 4 17 -3 20 -11 22 -10 16 5 -5 15 -4 16 9 5 8 -7 24 -10 35 -7 11 3 23 1 26
-4 3 -5 13 -5 25 1 10 6 20 8 20 5 1 -3 2 -9 3 -14 2 -18 26 -27 76 -30 13 -1
13 -2 0 -11 -13 -8 -12 -10 3 -10 10 0 16 -4 12 -10 -3 -5 7 -8 25 -5 21 2 30
-1 30 -11 0 -8 6 -14 13 -14 9 0 9 -2 -1 -9 -20 -12 -17 -21 12 -41 15 -9 23
-20 19 -23 -3 -4 -1 -7 6 -7 7 0 9 -5 5 -12 -6 -10 -4 -10 8 0 13 10 17 10 22
-3 3 -8 1 -15 -5 -15 -6 0 -6 -7 1 -19 13 -25 13 -34 -1 -25 -8 4 -8 0 0 -15
8 -14 8 -21 1 -21 -7 0 -8 -6 0 -19 13 -25 13 -34 -1 -25 -8 4 -8 0 0 -15 8
-14 8 -21 1 -21 -7 0 -8 -6 0 -19 13 -25 13 -34 -1 -25 -8 4 -8 0 0 -15 8 -15
8 -21 1 -21 -7 0 -8 -6 -2 -16 5 -8 6 -36 2 -60 -4 -26 -3 -47 3 -51 5 -3 3
-9 -4 -14 -10 -6 -11 -9 -1 -9 6 0 12 -5 12 -11 0 -5 -3 -8 -7 -6 -10 6 -8
-67 2 -82 3 -6 0 -11 -7 -11 -10 0 -10 -2 1 -9 11 -7 11 -9 0 -14 -10 -4 -10
-6 -1 -6 6 -1 12 -6 12 -12 0 -5 -4 -8 -8 -5 -9 5 -7 -47 2 -62 3 -6 0 -13 -6
-15 -10 -4 -10 -6 0 -6 6 -1 12 -6 12 -12 0 -5 -3 -8 -7 -6 -10 6 -8 -67 2
-82 3 -6 0 -11 -7 -11 -10 0 -10 -2 1 -9 11 -7 11 -9 0 -14 -10 -4 -10 -6 -1
-6 6 -1 12 -6 12 -12 0 -5 -4 -8 -8 -5 -4 3 -7 -9 -6 -26 1 -17 8 -35 16 -39
8 -5 9 -9 2 -9 -7 0 -15 -7 -18 -16 -5 -14 -4 -15 9 -4 12 10 15 9 15 -5 0
-10 3 -16 6 -12 11 11 47 -31 38 -45 -6 -10 -4 -10 9 1 15 12 17 12 11 -4 -5
-13 -4 -16 4 -11 7 4 12 2 12 -5 0 -7 7 -4 16 7 8 10 13 14 10 8 -3 -7 1 -14
9 -18 8 -3 15 -1 15 4 0 12 22 9 32 -5 5 -7 8 -6 8 0 0 6 9 11 20 12 13 1 18
-2 13 -10 -4 -7 0 -6 10 2 14 11 17 11 17 0 0 -8 6 -5 15 7 8 10 14 14 13 7
-2 -6 2 -10 7 -10 6 1 9 8 9 14 -1 7 2 10 8 7 5 -3 6 6 2 22 -6 23 -4 26 11
20 14 -5 16 -4 6 7 -9 12 -6 14 14 12 14 -2 23 1 19 6 -3 5 -10 6 -16 3 -6 -4
-6 1 1 14 8 15 8 23 0 28 -8 4 -7 9 2 14 10 7 10 12 0 23 -9 11 -9 17 0 22 8
6 7 10 -2 16 -10 6 -11 9 -1 9 6 0 12 5 12 11 0 5 -5 7 -11 3 -8 -5 -9 -2 -2
10 5 10 7 38 3 62 -4 25 -3 47 2 50 5 3 4 12 -2 19 -8 10 -7 14 2 17 11 4 11
8 0 20 -10 12 -10 18 -1 23 8 6 7 10 -2 16 -10 6 -11 9 -1 9 6 0 12 5 12 11 0
5 -5 7 -11 3 -8 -5 -9 -2 -2 10 5 10 7 38 3 62 -4 25 -3 47 2 50 5 3 4 12 -2
19 -8 10 -7 14 2 17 11 4 11 8 0 20 -10 12 -10 18 -1 23 8 6 7 10 -2 16 -10 6
-11 9 -1 9 6 0 12 5 12 11 0 5 -5 7 -11 3 -8 -5 -9 -2 -2 10 5 10 7 38 3 62
-4 25 -3 47 2 50 5 3 4 12 -2 19 -8 10 -7 14 2 17 11 4 11 8 0 20 -8 10 -9 19
-3 22 5 3 7 14 5 24 -3 9 4 27 16 40 12 12 18 27 14 34 -4 6 -3 8 3 5 13 -8
53 21 53 39 0 13 13 19 34 15 5 -1 4 4 -2 12 -10 12 -8 14 13 11 20 -2 24 0
15 11 -8 9 -5 14 11 18 13 4 18 10 13 18 -5 8 -3 9 7 3 25 -15 36 -12 49 12
11 20 16 22 29 11 12 -9 13 -9 7 1 -4 6 -2 12 3 12 6 0 11 -6 11 -12 0 -8 3
-9 8 -3 10 15 46 19 37 5 -6 -9 -2 -9 14 -1 18 10 21 9 21 -6 0 -15 2 -16 10
-3 8 13 10 12 10 -2 0 -10 7 -19 15 -19 8 -1 20 -3 25 -4 6 -1 17 -3 25 -4 8
0 14 -7 13 -13 -2 -7 3 -12 11 -10 12 3 12 0 1 -13 -11 -13 -10 -15 4 -9 12 5
19 0 23 -14 3 -13 10 -19 19 -15 10 4 12 0 7 -13 -5 -13 -3 -15 7 -9 10 6 12
4 8 -7 -5 -11 0 -14 18 -12 20 2 22 -1 14 -15 -6 -12 -5 -22 3 -31 7 -7 7 -10
1 -7 -6 3 -11 0 -11 -8 0 -8 4 -12 9 -9 4 3 14 -1 21 -8 15 -16 18 -289 2
-281 -5 3 -4 0 3 -8 6 -7 12 -17 12 -22 0 -4 -6 -5 -12 -1 -10 6 -10 5 -1 -7
10 -12 10 -18 0 -29 -8 -9 -8 -11 0 -6 18 10 21 -27 4 -48 -9 -11 -10 -16 -3
-12 7 4 12 1 12 -9 0 -10 -5 -13 -12 -9 -10 6 -10 5 -1 -7 10 -12 10 -18 0
-29 -8 -9 -8 -11 0 -6 18 10 21 -27 4 -48 -9 -11 -10 -16 -3 -12 7 4 12 1 12
-9 0 -10 -5 -13 -12 -9 -10 6 -10 5 -1 -7 10 -12 10 -18 0 -29 -8 -9 -8 -11 0
-6 18 10 21 -27 4 -48 -9 -11 -10 -16 -3 -12 7 4 12 1 12 -9 0 -10 -5 -13 -12
-9 -10 6 -10 5 -1 -7 10 -12 10 -18 0 -29 -8 -9 -8 -11 0 -6 18 10 21 -27 4
-48 -9 -11 -10 -16 -3 -12 7 4 12 1 12 -9 0 -10 -5 -13 -12 -9 -10 6 -10 5 -1
-7 10 -12 10 -18 0 -29 -9 -10 -9 -11 1 -6 7 5 12 1 12 -9 0 -10 -5 -13 -12
-9 -9 6 -9 3 0 -9 8 -9 11 -21 8 -26 -4 -5 -2 -12 4 -16 5 -3 10 -1 10 6 0 8
4 8 15 -1 9 -7 14 -19 11 -27 -3 -8 -1 -11 4 -8 6 3 10 1 10 -6 0 -10 3 -10
12 -1 15 15 32 16 22 1 -4 -8 0 -8 15 0 14 8 21 8 21 1 0 -7 6 -8 19 0 25 13
34 13 25 -1 -4 -8 0 -8 15 0 16 9 21 9 21 0 0 -7 9 -6 25 5 23 15 24 15 18 -1
-5 -11 -3 -14 6 -9 7 5 11 16 8 26 -3 11 1 17 12 16 9 0 15 4 14 9 -2 13 19
30 37 30 10 0 14 8 12 24 -3 17 0 21 10 15 10 -6 9 -3 -1 10 -13 15 -13 19 0
27 8 5 9 9 4 9 -14 0 -18 57 -5 65 5 3 10 12 10 18 0 7 -4 6 -10 -3 -6 -10 -9
-6 -8 18 1 17 5 29 10 26 5 -4 4 3 -4 15 -11 17 -10 25 1 43 12 19 11 23 -3
34 -14 10 -15 12 -1 17 8 4 12 13 9 22 -3 8 -10 12 -15 9 -5 -3 -6 2 -3 10 3
9 11 13 18 10 6 -3 3 1 -7 9 -15 13 -15 15 -2 20 8 4 12 13 9 22 -3 8 -10 12
-15 9 -5 -3 -6 2 -3 10 3 9 11 13 18 10 6 -3 3 1 -7 9 -15 13 -15 15 -2 20 8
4 12 13 9 22 -3 8 -10 12 -15 9 -5 -3 -6 2 -3 10 3 9 11 13 18 10 6 -3 3 1 -7
9 -15 13 -15 15 -2 20 8 4 12 13 9 22 -3 8 -10 13 -14 10 -5 -3 -6 4 -3 15 3
11 9 23 14 26 5 3 9 11 9 17 0 7 -4 6 -10 -3 -7 -11 -9 -2 -7 30 1 25 6 48 12
52 6 5 6 8 -2 8 -6 0 -11 13 -11 30 1 16 5 27 9 24 5 -3 6 2 3 10 -3 9 -11 13
-17 9 -5 -3 -7 -2 -4 4 11 18 16 64 6 58 -11 -8 -41 20 -32 29 11 10 12 37 2
30 -13 -8 -11 10 4 25 10 11 10 13 0 7 -15 -8 -18 10 -3 19 18 11 -13 46 -35
38 -18 -5 -18 -4 -6 11 12 14 12 19 2 26 -9 5 -10 10 -2 14 6 4 11 13 11 19 0
7 -4 6 -10 -3 -8 -13 -10 -13 -10 2 0 11 -5 15 -15 12 -11 -5 -13 -2 -8 12 5
13 3 15 -7 9 -10 -6 -11 -4 -4 6 15 25 13 39 -9 50 -21 10 -21 10 -3 -5 11 -9
15 -16 8 -16 -6 0 -19 12 -29 28 -10 15 -26 33 -35 40 -10 7 -15 18 -12 24 5
7 0 9 -14 6 -19 -5 -20 -3 -12 13 8 14 7 17 -3 13 -7 -2 -22 5 -33 17 -10 13
-13 19 -5 14 10 -6 12 -4 7 4 -5 7 -16 9 -28 5 -16 -5 -19 -3 -12 7 6 10 3 10
-11 -1 -11 -9 -16 -10 -11 -2 7 11 -5 17 -27 13 -5 -1 -6 3 -3 8 3 5 -1 14 -9
21 -12 10 -15 10 -15 0 0 -9 -4 -9 -17 1 -14 12 -16 12 -9 -1 4 -8 0 -6 -8 4
-9 11 -16 23 -16 28 0 4 -7 4 -17 1 -12 -5 -14 -3 -8 8 7 11 6 12 -7 2 -8 -7
-18 -10 -21 -6 -4 3 -7 0 -7 -7 0 -9 -5 -7 -16 6 -8 10 -13 13 -9 7 3 -7 2
-13 -2 -13 -5 0 -15 6 -22 13 -11 9 -12 9 -7 0 5 -9 -1 -12 -18 -11 -15 1 -26
7 -26 12 0 5 -3 6 -7 2 -4 -3 -12 6 -19 21 -8 19 -13 22 -13 11z m-391 -148
c0 -5 -5 -10 -11 -10 -5 0 -7 5 -4 10 3 6 8 10 11 10 2 0 4 -4 4 -10z"/>
<path d="M3184 3255 c-15 -18 -22 -20 -33 -11 -12 9 -13 8 -7 -3 6 -9 5 -12
-5 -9 -8 3 -24 -6 -37 -19 -12 -13 -27 -21 -32 -18 -5 3 -7 0 -4 -8 3 -8 0
-18 -6 -22 -8 -5 -6 -13 7 -28 10 -11 12 -17 4 -12 -11 6 -13 3 -9 -13 4 -12
2 -25 -4 -28 -5 -3 -2 -15 9 -27 10 -11 12 -17 4 -12 -11 6 -13 3 -9 -13 4
-12 2 -25 -4 -28 -5 -3 -2 -15 9 -27 10 -11 12 -17 5 -13 -10 6 -12 -1 -7 -34
4 -24 2 -40 -3 -36 -5 3 -9 -1 -9 -9 0 -8 4 -12 7 -10 4 3 8 -6 8 -20 0 -16
-5 -22 -12 -18 -6 4 -4 -2 4 -12 12 -14 12 -19 2 -23 -10 -3 -8 -8 5 -19 10
-8 13 -12 7 -9 -7 3 -15 -1 -18 -10 -3 -8 -2 -13 3 -10 5 3 9 -5 9 -19 0 -16
-5 -22 -12 -18 -6 4 -4 -2 4 -12 12 -14 12 -19 2 -23 -10 -3 -8 -8 5 -19 10
-8 13 -12 7 -9 -7 3 -15 -1 -18 -10 -3 -8 -2 -13 3 -10 5 3 9 -5 9 -19 0 -15
-5 -22 -12 -18 -6 3 -2 -4 9 -17 11 -13 14 -20 6 -15 -11 6 -13 3 -9 -13 4
-12 2 -25 -4 -28 -5 -3 -2 -15 9 -27 10 -11 12 -17 5 -13 -10 6 -12 -1 -7 -34
4 -24 2 -40 -3 -36 -5 3 -9 -1 -9 -9 0 -8 4 -12 7 -10 4 3 8 -6 8 -20 0 -16
-5 -22 -12 -18 -6 4 -4 -2 4 -12 12 -14 12 -19 2 -23 -10 -3 -8 -8 5 -19 10
-8 13 -12 7 -9 -7 3 -15 -1 -18 -10 -3 -8 -2 -13 3 -10 5 3 9 -5 9 -19 0 -15
-5 -22 -12 -18 -6 3 -6 0 2 -8 6 -7 12 -19 12 -27 0 -8 -5 -10 -12 -6 -10 6
-10 4 0 -8 7 -9 22 -15 34 -13 16 3 17 1 8 -9 -8 -11 -8 -15 2 -18 10 -4 10
-8 -1 -21 -9 -11 -10 -17 -2 -17 6 0 11 -5 11 -11 0 -5 -5 -7 -11 -4 -6 4 -5
-2 3 -14 9 -14 19 -19 33 -15 11 3 16 2 10 -3 -13 -11 -18 -36 -5 -28 5 3 10
2 10 -4 0 -6 8 -8 18 -4 9 3 14 3 10 -2 -4 -4 -2 -15 5 -23 8 -11 9 -14 0 -9
-8 5 -11 1 -10 -12 0 -11 5 -17 9 -15 4 3 8 -2 8 -11 0 -9 5 -13 10 -10 6 3
10 1 10 -5 0 -6 5 -8 10 -5 6 4 10 3 9 -2 -4 -22 2 -35 15 -30 10 4 14 0 11
-12 -3 -14 4 -17 36 -16 32 1 37 -1 27 -12 -9 -11 -8 -13 3 -11 8 2 13 -3 11
-11 -3 -12 -1 -12 14 0 12 9 15 9 10 2 -4 -8 -2 -13 4 -13 7 0 10 -7 7 -14 -4
-11 -1 -13 10 -9 10 4 14 2 10 -4 -3 -5 0 -10 8 -10 8 0 15 5 15 11 0 6 5 4
10 -4 8 -12 10 -12 10 -1 0 11 3 11 17 0 15 -12 16 -12 8 1 -4 8 3 4 17 -10
13 -14 23 -27 22 -30 -1 -3 8 -5 21 -5 13 0 21 3 18 8 -5 9 27 4 45 -6 7 -5
12 -3 12 4 0 8 4 8 15 -1 10 -9 15 -9 15 -1 0 13 22 10 32 -4 5 -7 8 -6 8 0 0
6 9 11 20 12 13 1 18 -2 13 -10 -4 -7 0 -6 10 2 14 11 17 11 17 0 0 -11 2 -11
10 1 9 13 11 13 20 0 9 -13 10 -13 10 0 0 13 1 13 10 0 6 -10 10 -11 10 -3 0
9 7 10 25 3 18 -7 25 -6 25 3 0 8 4 7 10 -3 6 -9 10 -11 10 -3 0 7 7 10 15 7
8 -4 15 -1 15 5 0 6 7 11 15 11 9 0 18 7 22 16 5 13 7 13 14 2 7 -11 9 -10 9
1 0 11 5 10 20 -4 22 -20 26 -35 9 -35 -5 0 -7 5 -3 12 5 7 3 8 -6 3 -10 -6
-9 -11 5 -22 12 -8 14 -13 6 -13 -11 0 -11 -3 -1 -15 7 -8 8 -15 3 -15 -5 0
-7 -14 -5 -32 4 -26 2 -30 -13 -24 -12 4 -16 2 -12 -8 4 -10 1 -13 -9 -9 -10
4 -12 0 -8 -11 4 -11 0 -16 -14 -16 -15 0 -20 -6 -19 -20 1 -11 5 -20 10 -20
4 0 5 -5 2 -10 -4 -6 -11 -8 -16 -4 -5 3 -8 0 -7 -7 2 -9 -8 -13 -29 -13 -19
0 -33 -5 -33 -12 0 -7 -7 -14 -15 -18 -8 -3 -15 -12 -15 -21 0 -9 -9 -15 -22
-15 -19 0 -20 -2 -8 -10 13 -8 13 -10 -2 -10 -10 0 -22 -10 -29 -21 -6 -12
-14 -17 -18 -12 -3 5 -16 9 -28 9 -18 0 -20 -3 -11 -19 7 -14 7 -17 -1 -13 -6
4 -11 3 -11 -3 0 -6 -11 -6 -30 -1 -16 5 -28 5 -27 0 1 -5 -7 -16 -18 -25 -20
-16 -20 -17 0 -10 11 3 16 2 11 -2 -9 -10 -96 -12 -90 -2 2 4 -6 5 -18 1 -12
-3 -17 -7 -11 -9 10 -4 10 -9 0 -24 -6 -10 -15 -19 -20 -19 -4 0 -6 4 -3 8 2
4 -15 8 -39 7 -36 0 -42 -3 -39 -18 3 -16 1 -17 -12 -6 -8 7 -14 8 -13 3 4
-22 -2 -35 -13 -28 -17 11 -58 11 -58 1 0 -4 -5 -5 -10 -2 -6 4 -7 11 -4 17 4
6 -3 4 -16 -5 -17 -12 -27 -13 -36 -6 -15 12 -59 -25 -49 -41 3 -6 -1 -7 -9
-4 -9 3 -16 11 -16 18 0 8 -3 8 -8 0 -4 -6 -15 -13 -24 -17 -13 -4 -15 -2 -11
11 5 14 3 14 -17 -3 -13 -11 -20 -15 -17 -9 9 16 -23 28 -37 14 -13 -13 -39
-13 -31 0 3 5 -7 3 -22 -5 -24 -13 -29 -12 -44 1 -16 14 -17 14 -13 -3 6 -24
-32 -49 -51 -33 -10 8 -15 8 -20 -1 -6 -8 -10 -7 -16 2 -5 8 -9 9 -9 4 0 -6
-9 -11 -20 -12 -13 -1 -18 2 -14 10 5 8 3 8 -7 0 -7 -7 -17 -13 -22 -13 -4 0
-5 6 -1 13 5 7 0 6 -11 -3 -22 -18 -18 -18 -38 -2 -10 9 -17 10 -22 2 -3 -5
-11 -10 -16 -10 -6 0 -7 6 -3 13 5 8 2 8 -9 -2 -13 -10 -20 -11 -31 -2 -11 9
-16 9 -21 0 -6 -8 -10 -7 -16 2 -6 9 -9 10 -9 2 0 -12 -17 -12 -37 0 -6 4 -14
3 -18 -3 -3 -5 -11 -10 -16 -10 -6 0 -7 6 -3 13 5 8 2 8 -9 -2 -13 -10 -20
-11 -31 -2 -11 9 -16 9 -21 0 -6 -8 -10 -7 -16 2 -5 8 -9 9 -9 4 0 -6 -9 -11
-20 -12 -13 -1 -18 2 -14 10 5 8 3 8 -7 -1 -7 -6 -17 -12 -22 -12 -4 0 -5 6
-1 12 5 8 0 7 -11 -2 -22 -18 -18 -18 -38 -2 -10 9 -17 10 -22 2 -3 -5 -11
-10 -16 -10 -6 0 -7 6 -3 13 5 8 2 8 -9 -2 -13 -10 -20 -11 -31 -2 -11 9 -16
9 -21 0 -6 -8 -10 -7 -16 2 -5 8 -9 9 -9 4 0 -6 -9 -11 -20 -12 -13 -1 -18 2
-14 10 5 8 3 8 -7 -1 -17 -16 -32 -16 -23 1 5 7 0 6 -11 -3 -19 -15 -22 -15
-42 1 -7 7 -14 6 -18 -1 -3 -5 -11 -10 -16 -10 -6 0 -7 6 -3 13 5 8 2 7 -9 -2
-15 -12 -20 -10 -43 15 -15 16 -23 22 -18 14 5 -10 0 -8 -15 4 -16 15 -24 17
-33 8 -16 -16 -41 -15 -32 1 6 10 4 10 -7 0 -18 -17 -63 -17 -53 0 5 8 2 8 -9
-2 -14 -11 -20 -11 -32 -1 -12 10 -16 9 -21 -4 -3 -9 -10 -16 -16 -16 -5 0 -7
4 -3 9 3 5 1 12 -5 16 -5 3 -10 1 -10 -4 0 -6 -7 -11 -15 -11 -8 0 -15 5 -15
11 0 6 -7 9 -14 6 -10 -4 -13 -1 -10 7 3 8 1 17 -5 21 -6 3 -11 1 -11 -6 0 -8
-5 -7 -17 2 -15 12 -16 12 -8 -1 8 -13 7 -13 -8 -1 -14 11 -17 11 -17 0 0 -8
-6 -6 -16 7 -8 10 -13 14 -10 8 7 -15 -17 -25 -33 -15 -7 5 -23 7 -37 5 -13
-1 -22 2 -18 7 3 5 0 9 -5 9 -6 0 -11 5 -11 11 0 5 6 7 13 3 7 -4 9 -3 4 2
-11 11 -70 12 -78 1 -9 -12 -37 2 -42 22 -3 11 -16 20 -35 23 -24 3 -29 1 -25
-11 5 -14 4 -14 -11 0 -19 17 -70 14 -59 -4 3 -6 1 -7 -6 -3 -6 4 -9 12 -6 17
4 5 1 9 -4 9 -6 0 -11 7 -11 17 0 9 -3 14 -6 10 -3 -3 -17 -2 -31 4 -18 7 -22
6 -17 -4 5 -8 2 -7 -9 2 -12 9 -14 17 -7 26 7 9 3 11 -18 10 -15 -1 -36 3 -47
8 -17 9 -18 8 -8 -4 9 -11 7 -14 -12 -14 -13 0 -22 2 -20 5 1 3 -1 16 -6 29
-8 19 -12 21 -24 11 -10 -9 -15 -9 -15 -1 0 6 -9 11 -21 11 -14 0 -19 5 -16
14 4 11 1 13 -10 9 -11 -5 -14 -3 -8 6 6 10 3 11 -12 2 -14 -7 -24 -7 -33 2
-10 9 -11 9 -6 0 4 -7 2 -13 -3 -13 -6 0 -11 5 -11 10 0 6 -5 10 -11 10 -5 0
-8 -4 -5 -8 6 -10 -24 -9 -39 0 -13 8 -66 -37 -57 -48 4 -5 0 -3 -9 4 -14 11
-17 9 -21 -13 -3 -13 -3 -27 0 -30 10 -9 11 -35 2 -30 -5 3 -11 1 -15 -5 -3
-5 -1 -10 4 -10 6 0 11 -5 11 -11 0 -5 -5 -7 -10 -4 -6 3 -10 1 -10 -5 0 -6
-4 -8 -10 -5 -6 4 -10 -5 -10 -19 0 -14 5 -26 11 -26 5 0 7 4 4 10 -3 6 1 7
10 4 11 -5 13 -10 5 -19 -8 -10 -8 -15 1 -21 8 -5 9 -3 4 6 -5 9 -4 11 4 6 9
-6 9 -11 0 -22 -9 -11 -9 -14 0 -14 7 0 9 -5 6 -10 -5 -9 7 -14 27 -11 4 0 10
-8 13 -19 4 -11 14 -20 23 -20 15 0 15 -2 2 -10 -13 -8 -12 -10 3 -10 10 0 15
-4 12 -10 -9 -14 8 -13 23 2 9 9 12 9 12 0 0 -7 6 -12 14 -12 7 0 20 -8 27
-17 13 -17 12 -17 -6 -3 -15 11 -17 11 -8 0 15 -17 53 -21 53 -6 0 6 5 4 10
-4 5 -8 10 -10 10 -4 0 6 7 11 15 11 13 0 18 -8 17 -27 0 -3 7 -12 16 -20 14
-13 15 -12 8 5 -7 18 -6 18 15 -1 12 -10 20 -14 16 -8 -3 6 0 11 8 11 15 0 28
-24 20 -36 -6 -10 27 -7 44 4 9 5 12 4 7 -3 -3 -6 -2 -13 4 -17 5 -3 10 -2 10
4 0 5 9 9 20 8 11 -1 20 -5 20 -10 0 -4 4 -5 10 -2 6 4 7 -1 3 -11 -5 -14 -3
-16 11 -11 10 4 15 3 11 -3 -8 -12 -8 -12 33 -1 21 6 30 6 26 0 -3 -6 7 -7 25
-4 24 4 31 1 36 -16 4 -11 9 -18 12 -16 2 3 17 1 33 -3 20 -6 30 -5 34 3 3 9
5 8 5 0 1 -7 6 -13 12 -13 5 0 8 4 5 8 -3 5 2 9 10 9 8 0 13 -6 10 -13 -3 -8
0 -11 9 -7 8 3 12 10 8 17 -4 6 1 5 11 -3 13 -11 14 -16 4 -22 -10 -7 -10 -9
0 -10 27 -3 31 -4 37 -11 4 -4 17 -3 30 2 13 5 26 6 29 2 11 -10 45 -9 39 1
-4 6 1 8 11 4 10 -4 33 -7 51 -7 29 0 33 -3 30 -21 -4 -18 -2 -19 12 -7 13 10
15 10 9 0 -6 -10 -1 -11 19 -6 18 4 30 2 36 -7 5 -8 9 -9 9 -3 0 7 7 15 16 18
8 3 13 2 10 -3 -3 -5 15 -9 40 -9 29 -1 42 2 38 9 -3 6 6 3 22 -7 15 -11 25
-14 22 -9 -4 7 18 10 62 10 52 0 73 -4 89 -19 11 -10 18 -24 14 -30 -4 -6 1
-5 10 3 9 7 17 10 17 6 0 -4 8 -1 17 6 14 12 16 12 8 0 -6 -11 -4 -13 7 -8 9
3 21 0 28 -6 7 -7 10 -7 7 -2 -3 7 91 10 286 9 279 -1 350 5 316 27 -17 10 -3
12 84 10 40 0 56 3 51 10 -3 6 6 3 22 -7 15 -11 25 -14 22 -9 -4 6 11 11 38
12 24 1 44 -3 44 -8 0 -6 7 -3 16 5 17 18 28 21 19 6 -3 -6 1 -10 9 -10 8 0
18 5 21 10 4 6 12 7 18 3 7 -4 5 2 -3 12 -13 17 -13 18 1 13 9 -4 21 -2 27 4
8 8 16 8 27 -2 12 -10 15 -10 15 0 0 9 4 9 17 -1 11 -10 14 -10 9 -1 -9 15 6
16 22 0 9 -9 12 -9 12 0 0 7 5 12 11 12 5 0 7 -6 4 -12 -4 -7 1 -4 9 6 15 18
16 18 16 2 0 -10 3 -16 8 -14 48 24 62 33 62 40 0 5 -5 6 -12 2 -7 -4 -8 -3
-4 5 6 9 11 9 22 0 11 -9 14 -9 14 0 0 8 5 9 19 1 14 -7 20 -7 23 1 3 8 10 6
21 -5 16 -16 17 -16 17 0 0 13 3 14 14 5 10 -9 17 -7 27 6 13 17 13 17 -5 3
-18 -14 -18 -14 -6 6 9 14 22 21 37 19 13 -1 23 1 23 4 0 4 9 7 19 7 11 0 17
-4 14 -9 -3 -5 4 -4 16 2 11 7 20 15 20 19 -3 20 3 23 18 11 9 -8 14 -9 10 -2
-5 7 4 11 27 11 21 0 42 8 55 21 23 23 41 27 41 9 0 -6 13 3 28 20 22 24 31
29 40 20 9 -9 12 -9 12 3 0 12 2 12 10 -1 8 -13 10 -12 11 5 1 11 1 23 0 27 0
4 7 4 16 1 9 -4 14 -2 10 3 -3 5 3 10 14 10 13 0 18 -5 14 -16 -4 -11 -2 -11
8 2 8 10 17 15 20 11 4 -3 5 4 2 15 -2 12 -1 21 3 21 19 -3 33 2 28 10 -4 5 7
20 23 34 17 14 27 28 23 31 -3 4 2 4 12 0 14 -5 17 -4 12 4 -4 7 -2 12 4 12 6
0 9 4 5 9 -3 6 3 8 14 6 14 -2 19 1 17 13 -2 10 13 30 32 47 20 17 32 23 27
15 -4 -8 1 -6 12 5 14 13 16 22 9 27 -7 5 -4 8 7 8 9 0 17 5 17 10 0 6 7 10
16 10 8 0 12 5 9 10 -4 6 -11 8 -16 5 -5 -4 -9 -1 -9 4 0 6 5 11 11 11 5 0 8
4 5 9 -9 13 21 34 36 25 7 -4 10 -4 6 1 -4 4 -2 15 5 23 7 10 8 13 1 9 -7 -4
-14 2 -17 13 -3 13 -1 18 6 13 6 -4 8 0 4 10 -7 20 1 47 15 47 5 0 6 -5 2 -12
-4 -7 -3 -8 4 -4 9 5 12 209 12 791 0 431 -3 791 -6 800 -5 12 -9 13 -14 5 -6
-9 -10 -7 -14 6 -3 11 -15 25 -27 32 -12 8 -18 9 -14 3 3 -6 2 -11 -4 -11 -5
0 -12 6 -14 13 -4 8 -6 7 -6 -3 -1 -9 -6 -6 -14 9 -9 18 -21 25 -44 26 -18 1
-30 -2 -27 -7 7 -10 -14 -38 -28 -38 -5 0 -6 6 -2 13 5 8 2 8 -9 -2 -9 -7 -17
-10 -17 -5 0 4 -13 -7 -30 -26 -20 -24 -28 -29 -24 -15 4 13 3 16 -3 8 -5 -6
-8 -27 -7 -47 2 -28 -1 -33 -14 -29 -10 4 -13 2 -8 -5 4 -7 1 -12 -7 -12 -14
0 -16 -38 -2 -59 3 -6 1 -11 -5 -11 -8 0 -8 -6 0 -20 10 -19 6 -24 -13 -21 -5
1 -6 -3 -2 -9 3 -6 11 -8 16 -5 5 4 9 1 9 -4 0 -6 -4 -11 -8 -11 -5 0 -9 -7
-9 -15 0 -8 4 -12 9 -9 4 3 8 0 8 -5 0 -6 -5 -11 -11 -11 -5 0 -7 -5 -3 -11
11 -18 11 -53 -1 -61 -6 -5 -5 -8 4 -8 11 0 11 -3 0 -16 -10 -13 -10 -17 2
-25 10 -6 10 -9 2 -9 -7 0 -13 -5 -13 -11 0 -5 3 -8 8 -6 4 3 7 -6 7 -19 0
-13 -4 -24 -10 -24 -5 0 -3 -5 5 -10 13 -9 13 -10 0 -10 -13 0 -13 -1 0 -10
13 -9 13 -10 0 -10 -13 0 -13 -1 0 -10 10 -6 11 -10 3 -10 -7 0 -13 -5 -13
-11 0 -5 4 -8 8 -5 4 2 8 -4 8 -15 0 -10 -3 -19 -7 -19 -8 0 -4 -45 6 -59 3
-6 1 -11 -5 -11 -8 0 -8 -6 0 -20 10 -19 6 -24 -13 -21 -5 1 -6 -3 -2 -9 3 -6
11 -8 16 -5 5 4 9 1 9 -4 0 -6 -4 -11 -8 -11 -5 0 -9 -7 -9 -15 0 -8 4 -12 9
-9 4 3 8 0 8 -5 0 -6 -5 -11 -11 -11 -8 0 -7 -6 2 -17 10 -11 10 -14 2 -9 -7
4 -13 3 -13 -3 0 -5 6 -12 13 -14 10 -4 10 -6 0 -6 -7 -1 -13 -6 -13 -12 0 -5
4 -8 8 -5 4 2 8 -4 8 -15 0 -10 -3 -19 -6 -19 -3 0 -3 -23 -2 -50 4 -44 2 -49
-14 -43 -13 5 -15 3 -9 -7 6 -10 4 -12 -7 -7 -14 5 -15 1 -8 -22 6 -22 4 -30
-12 -40 -10 -6 -24 -8 -31 -4 -9 5 -9 3 -1 -8 9 -11 9 -17 -2 -27 -10 -9 -14
-9 -14 -1 0 8 -4 8 -15 -1 -12 -10 -15 -10 -16 1 0 8 -5 4 -11 -8 -6 -13 -17
-23 -25 -23 -9 0 -11 -5 -7 -12 6 -10 5 -10 -7 -1 -11 9 -20 8 -39 -7 -15 -12
-19 -20 -11 -20 8 0 11 -3 8 -6 -4 -4 -14 -1 -24 7 -9 8 -14 9 -10 2 5 -8 -1
-11 -20 -9 -16 2 -38 4 -50 5 -17 1 -21 5 -16 18 4 10 2 14 -4 10 -6 -4 -14 1
-17 10 -5 12 -10 13 -18 5 -6 -6 -17 -8 -26 -5 -11 5 -13 3 -7 -8 5 -8 -2 -5
-15 6 -13 11 -20 14 -15 6 6 -10 4 -12 -4 -7 -7 5 -10 15 -7 23 3 8 1 11 -4 8
-6 -3 -10 -2 -10 4 0 6 -8 7 -17 4 -15 -6 -16 -4 -5 9 10 13 9 18 -5 29 -17
13 -17 13 -3 -6 11 -15 7 -14 -13 4 -20 19 -24 27 -16 38 9 10 8 13 -1 13 -10
0 -10 3 0 15 10 12 8 14 -9 10 -20 -4 -25 5 -22 34 2 8 -2 10 -10 5 -8 -5 -9
-3 -3 7 16 26 12 36 -13 33 -14 -1 -22 0 -19 3 3 4 0 13 -7 21 -8 11 -8 14 0
9 15 -9 14 85 -1 95 -7 5 -4 8 7 8 9 0 17 5 17 11 0 5 -5 7 -10 4 -7 -4 -9 2
-4 19 4 18 2 26 -7 26 -9 0 -10 3 -3 8 20 14 24 41 6 51 -12 7 -13 10 -3 11 7
0 11 6 7 15 -3 8 -1 15 4 15 6 0 10 5 10 10 0 6 -3 9 -7 9 -19 -3 -27 2 -15 9
13 9 25 52 14 51 -19 -3 -25 2 -12 11 12 8 13 13 3 29 -11 17 -10 22 5 30 9 6
12 11 5 11 -7 0 -10 7 -7 15 4 8 0 23 -7 32 -12 14 -12 16 0 8 11 -6 13 -2 7
19 -4 15 -3 25 1 23 4 -3 8 5 8 18 0 13 -3 21 -6 19 -4 -2 -6 7 -5 21 0 14 4
25 9 25 4 0 7 5 7 11 0 5 -5 7 -11 3 -8 -4 -9 1 -4 16 5 17 4 21 -6 16 -8 -4
-6 -1 4 7 17 15 24 33 8 23 -5 -3 -7 11 -6 31 2 21 -1 43 -7 50 -8 11 -7 12 7
7 14 -6 16 -4 9 7 -4 8 -7 21 -6 30 2 9 -5 22 -15 30 -17 13 -17 13 -3 -6 14
-19 14 -19 -2 -6 -10 7 -18 20 -18 27 0 8 -6 14 -14 14 -8 0 -17 6 -19 13 -4
9 -6 8 -6 -2 -1 -11 -4 -11 -18 0 -15 12 -16 12 -8 -1 6 -12 6 -13 -6 -2 -12
11 -12 14 1 23 13 9 13 10 -2 6 -9 -3 -19 -3 -22 1 -14 13 -33 9 -52 -13z"/>
<path d="M1246 2905 c-11 -8 -15 -15 -9 -15 6 0 16 7 23 15 16 19 11 19 -14 0z"/>
<path d="M763 1495 c0 -8 4 -12 9 -9 5 3 6 10 3 15 -9 13 -12 11 -12 -6z"/>
<path d="M4139 1343 c-13 -16 -12 -17 4 -4 16 13 21 21 13 21 -2 0 -10 -8 -17
-17z"/>
<path d="M4029 1233 c-13 -16 -12 -17 4 -4 9 7 17 15 17 17 0 8 -8 3 -21 -13z"/>
<path d="M2060 886 c0 -2 8 -10 18 -17 15 -13 16 -12 3 4 -13 16 -21 21 -21
13z"/>
</g>
</svg>
